<svg width="615" height="382" viewBox="0 0 615 382" fill="none" xmlns="http://www.w3.org/2000/svg">
<path d="M278.115 195.209L363.617 66.4131C366.609 61.9069 366.228 55.9721 362.685 51.8809L321.386 4.19252C317.585 -0.196149 311.187 -1.27995 306.141 1.61017L231.245 44.505C228.471 46.0938 226.44 48.7087 225.595 51.7803L188.848 185.369C186.735 193.051 192.546 200.627 200.551 200.627H267.991C272.066 200.627 275.869 198.592 278.115 195.209Z" fill="url(#paint0_linear_2474_1217)"/>
<path d="M426.832 149.492C426.832 119.862 402.689 95.8418 372.907 95.8418H371.643C342.559 95.8418 318.982 119.299 318.982 148.235C318.982 177.17 342.559 200.627 371.643 200.627H426.832V149.492Z" fill="url(#paint1_linear_2474_1217)"/>
<path d="M76 319.232C76 311.62 77.4167 304.869 80.25 298.978C83.1692 293.088 87.0757 288.557 91.9696 285.385C96.9494 282.213 102.487 280.627 108.583 280.627C113.906 280.627 118.543 281.76 122.492 284.025C126.528 286.291 129.747 289.146 132.151 292.589V281.85H150.31V357.158H132.151V346.147C129.833 349.681 126.613 352.627 122.492 354.983C118.457 357.248 113.778 358.381 108.454 358.381C102.444 358.381 96.9494 356.75 91.9696 353.488C87.0757 350.225 83.1692 345.649 80.25 339.758C77.4167 333.777 76 326.935 76 319.232ZM132.151 319.504C132.151 314.882 131.293 310.94 129.576 307.678C127.858 304.325 125.54 301.787 122.621 300.066C119.702 298.253 116.568 297.347 113.22 297.347C109.871 297.347 106.78 298.208 103.947 299.93C101.113 301.651 98.7954 304.189 96.9923 307.542C95.2752 310.804 94.4166 314.701 94.4166 319.232C94.4166 323.763 95.2752 327.751 96.9923 331.194C98.7954 334.548 101.113 337.13 103.947 338.943C106.866 340.755 109.957 341.661 113.22 341.661C116.568 341.661 119.702 340.8 122.621 339.079C125.54 337.266 127.858 334.729 129.576 331.466C131.293 328.113 132.151 324.126 132.151 319.504Z" fill="black"/>
<path d="M163 319.292C163 311.68 164.417 304.929 167.25 299.038C170.169 293.148 174.119 288.617 179.098 285.445C184.078 282.273 189.616 280.687 195.712 280.687C200.348 280.687 204.77 281.775 208.977 283.949C213.184 286.034 216.532 288.843 219.022 292.377V256.627H237.31V357.218H219.022V346.071C216.79 349.787 213.656 352.777 209.621 355.043C205.585 357.308 200.906 358.441 195.583 358.441C189.573 358.441 184.078 356.81 179.098 353.548C174.119 350.285 170.169 345.709 167.25 339.818C164.417 333.837 163 326.995 163 319.292ZM219.151 319.564C219.151 314.942 218.292 311 216.575 307.738C214.858 304.385 212.54 301.847 209.621 300.126C206.702 298.313 203.568 297.407 200.219 297.407C196.871 297.407 193.78 298.268 190.947 299.99C188.113 301.711 185.795 304.249 183.992 307.602C182.275 310.864 181.416 314.761 181.416 319.292C181.416 323.823 182.275 327.811 183.992 331.254C185.795 334.608 188.113 337.19 190.947 339.003C193.866 340.815 196.957 341.721 200.219 341.721C203.568 341.721 206.702 340.86 209.621 339.139C212.54 337.326 214.858 334.789 216.575 331.526C218.292 328.173 219.151 324.186 219.151 319.564Z" fill="black"/>
<path d="M250 319.232C250 311.62 251.417 304.869 254.25 298.978C257.169 293.088 261.076 288.557 265.97 285.385C270.95 282.213 276.488 280.627 282.584 280.627C287.907 280.627 292.543 281.76 296.493 284.025C300.528 286.291 303.748 289.146 306.152 292.589V281.85H324.311V357.158H306.152V346.147C303.833 349.681 300.614 352.627 296.493 354.983C292.457 357.248 287.778 358.381 282.455 358.381C276.445 358.381 270.95 356.75 265.97 353.488C261.076 350.225 257.169 345.649 254.25 339.758C251.417 333.777 250 326.935 250 319.232ZM306.152 319.504C306.152 314.882 305.293 310.94 303.576 307.678C301.859 304.325 299.541 301.787 296.621 300.066C293.702 298.253 290.568 297.347 287.22 297.347C283.871 297.347 280.781 298.208 277.947 299.93C275.114 301.651 272.796 304.189 270.993 307.542C269.275 310.804 268.417 314.701 268.417 319.232C268.417 323.763 269.275 327.751 270.993 331.194C272.796 334.548 275.114 337.13 277.947 338.943C280.866 340.755 283.957 341.661 287.22 341.661C290.568 341.661 293.702 340.8 296.621 339.079C299.541 337.266 301.859 334.729 303.576 331.466C305.293 328.113 306.152 324.126 306.152 319.504Z" fill="black"/>
<path d="M360.031 292.725C362.349 289.281 365.525 286.427 369.561 284.161C373.682 281.805 378.361 280.627 383.599 280.627C389.695 280.627 395.189 282.213 400.083 285.385C405.063 288.557 408.97 293.088 411.803 298.978C414.722 304.778 416.182 311.529 416.182 319.232C416.182 326.935 414.722 333.777 411.803 339.758C408.97 345.649 405.063 350.225 400.083 353.488C395.189 356.75 389.695 358.381 383.599 358.381C378.361 358.381 373.725 357.248 369.69 354.983C365.74 352.717 362.52 349.863 360.031 346.419V381.557H342V281.85H360.031V292.725ZM397.765 319.232C397.765 314.701 396.864 310.804 395.061 307.542C393.344 304.189 391.025 301.651 388.106 299.93C385.273 298.208 382.182 297.347 378.834 297.347C375.571 297.347 372.48 298.253 369.561 300.066C366.728 301.787 364.409 304.325 362.606 307.678C360.889 311.031 360.031 314.973 360.031 319.504C360.031 324.035 360.889 327.977 362.606 331.33C364.409 334.683 366.728 337.266 369.561 339.079C372.48 340.8 375.571 341.661 378.834 341.661C382.182 341.661 385.273 340.755 388.106 338.943C391.025 337.13 393.344 334.548 395.061 331.194C396.864 327.841 397.765 323.854 397.765 319.232Z" fill="black"/>
<path d="M450.659 297.883V334.313C450.659 336.851 451.217 338.708 452.334 339.886C453.536 340.974 455.51 341.518 458.258 341.518H466.629V357.558H455.296C440.099 357.558 432.5 349.764 432.5 334.177V297.883H424V282.25H432.5V263.627H450.659V282.25H466.629V297.883H450.659Z" fill="black"/>
<path d="M511.166 358.381C505.328 358.381 500.09 357.294 495.454 355.119C490.818 352.853 487.126 349.817 484.378 346.011C481.717 342.205 480.257 337.991 480 333.369H498.159C498.502 336.269 499.833 338.671 502.151 340.574C504.555 342.477 507.517 343.429 511.037 343.429C514.472 343.429 517.133 342.704 519.022 341.254C520.997 339.804 521.984 337.946 521.984 335.68C521.984 333.233 520.782 331.421 518.378 330.243C516.06 328.974 512.325 327.615 507.174 326.165C501.851 324.806 497.472 323.401 494.037 321.951C490.689 320.501 487.77 318.281 485.28 315.29C482.876 312.3 481.674 308.267 481.674 303.192C481.674 299.023 482.79 295.217 485.022 291.774C487.34 288.33 490.603 285.611 494.81 283.618C499.103 281.624 504.126 280.627 509.878 280.627C518.378 280.627 525.161 282.893 530.227 287.424C535.292 291.864 538.083 297.891 538.598 305.503H521.34C521.083 302.512 519.881 300.156 517.734 298.434C515.674 296.622 512.883 295.716 509.363 295.716C506.101 295.716 503.568 296.35 501.765 297.619C500.048 298.887 499.189 300.655 499.189 302.92C499.189 305.458 500.391 307.406 502.795 308.765C505.199 310.034 508.934 311.348 513.999 312.707C519.151 314.067 523.401 315.471 526.749 316.921C530.098 318.371 532.974 320.637 535.378 323.718C537.868 326.709 539.156 330.696 539.242 335.68C539.242 340.03 538.083 343.927 535.765 347.371C533.532 350.814 530.27 353.533 525.977 355.527C521.77 357.43 516.833 358.381 511.166 358.381Z" fill="black"/>
<defs>
<linearGradient id="paint0_linear_2474_1217" x1="189.496" y1="200.279" x2="412.888" y2="-14.8354" gradientUnits="userSpaceOnUse">
<stop stop-color="#DF2BFF"/>
<stop offset="1" stop-color="#00B7FF"/>
</linearGradient>
<linearGradient id="paint1_linear_2474_1217" x1="189.496" y1="200.279" x2="412.888" y2="-14.8354" gradientUnits="userSpaceOnUse">
<stop stop-color="#DF2BFF"/>
<stop offset="1" stop-color="#00B7FF"/>
</linearGradient>
</defs>
</svg>
